<svg width="43" height="43" viewBox="0 0 43 43" fill="none" xmlns="http://www.w3.org/2000/svg">
<path d="M26.2359 21.5014L42.313 5.4236C42.7553 4.98102 42.9993 4.39056 43 3.76094C43 3.13097 42.756 2.53981 42.313 2.09792L40.9042 0.689409C40.4613 0.245775 39.8708 0.00280762 39.2405 0.00280762C38.6112 0.00280762 38.0207 0.245775 37.5778 0.689409L21.5007 16.7662L5.42289 0.689409C4.98066 0.245775 4.38985 0.00280762 3.75988 0.00280762C3.13061 0.00280762 2.5398 0.245775 2.09756 0.689409L0.688 2.09792C-0.229333 3.01525 -0.229333 4.50732 0.688 5.4236L16.7655 21.5014L0.688 37.5785C0.245415 38.0218 0.00174797 38.6123 0.00174797 39.2419C0.00174797 39.8715 0.245415 40.462 0.688 40.9049L2.09721 42.3134C2.53945 42.7567 3.13061 43 3.75953 43C4.3895 43 4.98031 42.7567 5.42254 42.3134L21.5003 26.2363L37.5775 42.3134C38.0204 42.7567 38.6109 43 39.2401 43H39.2408C39.8704 43 40.4609 42.7567 40.9038 42.3134L42.3127 40.9049C42.7549 40.4623 42.999 39.8715 42.999 39.2419C42.999 38.6123 42.7549 38.0218 42.3127 37.5789L26.2359 21.5014Z" fill="white"/>
</svg>
