<svg width="9" height="10" viewBox="0 0 9 10" fill="none" xmlns="http://www.w3.org/2000/svg">
<path d="M8.20096 0.425451V4.53833L8.20091 5.7497L8.20066 9.86251C8.20055 9.97571 8.14927 10.0825 8.05608 10.163C7.96289 10.2436 7.83933 10.2879 7.70837 10.288L7.29139 10.2879C7.16023 10.288 7.03672 10.2435 6.94354 10.163C6.85041 10.0825 6.79904 9.97581 6.79909 9.86251L6.79925 5.74965L6.79929 4.53837L6.7995 0.425401C6.79935 0.190863 7.02019 8e-06 7.29173 0L7.70881 0.000122011C7.83993 -5.99893e-05 7.96333 0.044429 8.05646 0.124916C8.14969 0.205492 8.20117 0.312139 8.20096 0.425451Z" fill="#C4C4C4"/>
<path d="M2.20096 0.425451V4.53833L2.20091 5.7497L2.20066 9.86251C2.20055 9.97571 2.14927 10.0825 2.05608 10.163C1.96289 10.2436 1.83933 10.2879 1.70837 10.288L1.29139 10.2879C1.16023 10.288 1.03672 10.2435 0.943542 10.163C0.85041 10.0825 0.799035 9.97581 0.799091 9.86251L0.799246 5.74965L0.799292 4.53837L0.799498 0.425401C0.799352 0.190863 1.02019 8e-06 1.29173 0L1.70881 0.000122011C1.83993 -5.99893e-05 1.96333 0.044429 2.05646 0.124916C2.14969 0.205492 2.20117 0.312139 2.20096 0.425451Z" fill="#C4C4C4"/>
</svg>
