<svg width="11" height="12" viewBox="0 0 11 12" fill="none" xmlns="http://www.w3.org/2000/svg">
<path d="M8.95904 2.2373L8.21765 10.6856H2.78239L2.04116 2.2373L1.10193 2.31964L1.85669 10.9212C1.89642 11.3176 2.24041 11.6285 2.64003 11.6285H8.36003C8.75949 11.6285 9.10362 11.3178 9.14401 10.9155L9.8983 2.31964L8.95904 2.2373Z" fill="#333333"/>
<path d="M7.22845 0H3.77132C3.33806 0 2.9856 0.352468 2.9856 0.785722V2.27858H3.92844V0.942844H7.07128V2.27856H8.01413V0.7857C8.01417 0.352468 7.66171 0 7.22845 0Z" fill="#333333"/>
<path d="M10.5285 1.80713H0.471433C0.21104 1.80713 0 2.01817 0 2.27856C0 2.53896 0.21104 2.75 0.471433 2.75H10.5286C10.789 2.75 11 2.53896 11 2.27856C11 2.01817 10.7889 1.80713 10.5285 1.80713Z" fill="#333333"/>
</svg>
