<svg width="56" height="56" viewBox="0 0 56 56" fill="none" xmlns="http://www.w3.org/2000/svg">
<path d="M28.0009 0C12.531 0 0 12.531 0 28.0009C0 43.4633 12.531 56 28.0009 56C43.4709 56 55.9981 43.4633 55.9981 28.0009C55.9981 12.531 43.4709 0 28.0009 0ZM28.0009 51.4324C15.0585 51.4324 4.5676 40.9434 4.5676 27.9991C4.5676 15.0528 15.0585 4.56001 28.0009 4.56001C40.9434 4.56001 51.4362 15.0547 51.4362 28.0009C51.4362 40.9434 40.9434 51.4324 28.0009 51.4324Z" fill="white"/>
<path d="M30.9778 34.0569L32.1154 10.6198H23.9377L25.0792 34.0569H30.9778Z" fill="white"/>
<path d="M28.0257 36.6375C25.2859 36.6375 23.3708 38.5544 23.3708 41.3492C23.3708 44.0378 25.2328 46.0552 27.9176 46.0552H28.0257C30.8186 46.0552 32.6293 44.0378 32.6293 41.3492C32.5781 38.5544 30.7674 36.6375 28.0257 36.6375Z" fill="white"/>
</svg>
