<svg width="51" height="51" viewBox="0 0 51 51" fill="none" xmlns="http://www.w3.org/2000/svg">
<path d="M46.2188 0H4.78125C2.14061 0 0 2.14061 0 4.78125V46.2188C0 48.8594 2.14061 51 4.78125 51H46.2188C48.8594 51 51 48.8594 51 46.2188V4.78125C51 2.14061 48.8594 0 46.2188 0ZM47.8125 46.2188C47.8125 47.099 47.099 47.8125 46.2188 47.8125H4.78125C3.901 47.8125 3.1875 47.099 3.1875 46.2188V4.78125C3.1875 3.901 3.901 3.1875 4.78125 3.1875H46.2188C47.099 3.1875 47.8125 3.901 47.8125 4.78125V46.2188Z" fill="#5CB0F9"/>
<path d="M34.6003 27.5559C33.9787 26.938 32.9748 26.938 32.3531 27.5559L28.6875 31.2216L21.8503 24.3844C21.2287 23.7664 20.2248 23.7664 19.6031 24.3844L8.44689 35.5406C7.83071 36.1692 7.84057 37.1782 8.4691 37.7944C8.76146 38.0811 9.15302 38.2442 9.56252 38.25H41.4375C42.3177 38.2551 43.0353 37.5458 43.0405 36.6655C43.043 36.2373 42.8731 35.8262 42.5691 35.5247L34.6003 27.5559Z" fill="#5CB0F9"/>
<path d="M30.2812 22.3125C32.9219 22.3125 35.0625 20.1719 35.0625 17.5312C35.0625 14.8906 32.9219 12.75 30.2812 12.75C27.6406 12.75 25.5 14.8906 25.5 17.5312C25.5 20.1719 27.6406 22.3125 30.2812 22.3125Z" fill="#5CB0F9"/>
</svg>
