<svg width="57" height="43" viewBox="0 0 57 43" fill="none" xmlns="http://www.w3.org/2000/svg">
<path d="M44.5378 42.2374H35.3251H32.8443H32.3085V29.88H36.35C37.375 29.88 37.9806 28.7153 37.3749 27.8767L29.5133 16.9985C29.0125 16.2997 27.9759 16.2997 27.4751 16.9985L19.6134 27.8767C19.0078 28.7153 19.6018 29.88 20.6383 29.88H24.6798V42.2374H24.1441H21.6633H10.983C4.86841 41.8996 0 36.181 0 29.9848C0 25.7104 2.31774 21.9834 5.75358 19.9685C5.43911 19.1182 5.27605 18.2098 5.27605 17.2547C5.27605 12.8871 8.80507 9.35812 13.1727 9.35812C14.1161 9.35812 15.0245 9.52118 15.8747 9.83564C18.4021 4.47806 23.8529 0.762695 30.1888 0.762695C38.3882 0.774342 45.1434 7.05203 45.9121 15.0535C52.2131 16.1366 57 21.9717 57 28.5755C57 35.6336 51.5027 41.7482 44.5378 42.2374Z" fill="#5CB0F9"/>
</svg>
